<svg xmlns="http://www.w3.org/2000/svg" xmlns:xlink="http://www.w3.org/1999/xlink" width="48"
  height="48" viewBox="0 0 12.7 12.7" version="1.1">
  <defs>
    <linearGradient id="linearGradient4546">
      <stop offset="0" style="stop-color:#de819a;stop-opacity:1"/>
      <stop offset="1" style="stop-color:#de819a;stop-opacity:0"/>
    </linearGradient>
    <radialGradient xlink:href="#linearGradient4546" id="radialGradient4548" cx="8" cy="292.1"
      fx="8" fy="292.1" r="1.3" gradientTransform="matrix(0.45,0.75,-0.82,0.49,243.91,144.79)"
      gradientUnits="userSpaceOnUse"/>
    <radialGradient xlink:href="#linearGradient4546" id="radialGradient4604"
      gradientUnits="userSpaceOnUse" gradientTransform="matrix(0.45,0.75,-0.82,0.49,243.91,144.79)"
      cx="8.1" cy="292.5" fx="8.1" fy="292.5" r="1.3"/>
    <radialGradient xlink:href="#linearGradient4546" id="radialGradient4612"
      gradientUnits="userSpaceOnUse" gradientTransform="matrix(0.45,0.75,-0.82,0.49,243.91,144.79)"
      cx="8.1" cy="292.5" fx="8.1" fy="292.5" r="1.3"/>
  </defs>
  <g transform="translate(0,-284.29999)">
    <g transform="translate(-6.0022424,-3.3151126)">
      <path
        d="m10.6 293.8c0 0.1-0.3 0.1-0.3 0.2-0.1 0.1 0 0.3-0.1 0.4-0.1 0.1-0.3 0-0.4 0-0.1 0.1-0.1 0.3-0.2 0.3-0.1 0-0.2-0.2-0.3-0.2-0.1 0-0.2 0.2-0.4 0.1-0.1 0-0.1-0.3-0.2-0.3-0.1-0.1-0.3 0-0.4-0.1-0.1-0.1 0-0.3 0-0.4-0.1-0.1-0.3-0.1-0.3-0.2 0-0.1 0.2-0.2 0.2-0.3 0-0.1-0.2-0.2-0.1-0.4 0-0.1 0.3-0.1 0.3-0.2 0.1-0.1 0-0.3 0.1-0.4 0.1-0.1 0.3 0 0.4 0 0.1-0.1 0.1-0.3 0.2-0.3 0.1 0 0.2 0.2 0.3 0.2 0.1 0 0.2-0.2 0.4-0.1 0.1 0 0.1 0.3 0.2 0.3 0.1 0.1 0.3 0 0.4 0.1 0.1 0.1 0 0.3 0 0.4 0.1 0.1 0.3 0.1 0.3 0.2 0 0.1-0.2 0.2-0.2 0.3 0 0.1 0.2 0.2 0.1 0.4z"
        fill="#ff5747"/>
      <path
        d="m10.6 293.8c0 0.1-0.3 0.1-0.3 0.2-0.1 0.1 0 0.3-0.1 0.4-0.1 0.1-0.3 0-0.4 0-0.1 0.1-0.1 0.3-0.2 0.3-0.1 0-0.2-0.2-0.3-0.2-0.1 0-0.2 0.2-0.4 0.1-0.1 0-0.1-0.3-0.2-0.3-0.1-0.1-0.3 0-0.4-0.1-0.1-0.1 0-0.3 0-0.4-0.1-0.1-0.3-0.1-0.3-0.2 0-0.1 0.2-0.2 0.2-0.3 0-0.1-0.2-0.2-0.1-0.4 0-0.1 0.3-0.1 0.3-0.2 0.1-0.1 0-0.3 0.1-0.4 0.1-0.1 0.3 0 0.4 0 0.1-0.1 0.1-0.3 0.2-0.3 0.1 0 0.2 0.2 0.3 0.2 0.1 0 0.2-0.2 0.4-0.1 0.1 0 0.1 0.3 0.2 0.3 0.1 0.1 0.3 0 0.4 0.1 0.1 0.1 0 0.3 0 0.4 0.1 0.1 0.3 0.1 0.3 0.2 0 0.1-0.2 0.2-0.2 0.3 0 0.1 0.2 0.2 0.1 0.4z"
        style="fill:url(#radialGradient4548);opacity:0.5"/>
    </g>
    <g transform="matrix(0.76566062,0,0,0.76566062,-0.89517309,62.469482)">
      <path
        d="m10.6 293.8c0 0.1-0.3 0.1-0.3 0.2-0.1 0.1 0 0.3-0.1 0.4-0.1 0.1-0.3 0-0.4 0-0.1 0.1-0.1 0.3-0.2 0.3-0.1 0-0.2-0.2-0.3-0.2-0.1 0-0.2 0.2-0.4 0.1-0.1 0-0.1-0.3-0.2-0.3-0.1-0.1-0.3 0-0.4-0.1-0.1-0.1 0-0.3 0-0.4-0.1-0.1-0.3-0.1-0.3-0.2 0-0.1 0.2-0.2 0.2-0.3 0-0.1-0.2-0.2-0.1-0.4 0-0.1 0.3-0.1 0.3-0.2 0.1-0.1 0-0.3 0.1-0.4 0.1-0.1 0.3 0 0.4 0 0.1-0.1 0.1-0.3 0.2-0.3 0.1 0 0.2 0.2 0.3 0.2 0.1 0 0.2-0.2 0.4-0.1 0.1 0 0.1 0.3 0.2 0.3 0.1 0.1 0.3 0 0.4 0.1 0.1 0.1 0 0.3 0 0.4 0.1 0.1 0.3 0.1 0.3 0.2 0 0.1-0.2 0.2-0.2 0.3 0 0.1 0.2 0.2 0.1 0.4z"
        fill="#ff5747"/>
      <path
        d="m10.6 293.8c0 0.1-0.3 0.1-0.3 0.2-0.1 0.1 0 0.3-0.1 0.4-0.1 0.1-0.3 0-0.4 0-0.1 0.1-0.1 0.3-0.2 0.3-0.1 0-0.2-0.2-0.3-0.2-0.1 0-0.2 0.2-0.4 0.1-0.1 0-0.1-0.3-0.2-0.3-0.1-0.1-0.3 0-0.4-0.1-0.1-0.1 0-0.3 0-0.4-0.1-0.1-0.3-0.1-0.3-0.2 0-0.1 0.2-0.2 0.2-0.3 0-0.1-0.2-0.2-0.1-0.4 0-0.1 0.3-0.1 0.3-0.2 0.1-0.1 0-0.3 0.1-0.4 0.1-0.1 0.3 0 0.4 0 0.1-0.1 0.1-0.3 0.2-0.3 0.1 0 0.2 0.2 0.3 0.2 0.1 0 0.2-0.2 0.4-0.1 0.1 0 0.1 0.3 0.2 0.3 0.1 0.1 0.3 0 0.4 0.1 0.1 0.1 0 0.3 0 0.4 0.1 0.1 0.3 0.1 0.3 0.2 0 0.1-0.2 0.2-0.2 0.3 0 0.1 0.2 0.2 0.1 0.4z"
        style="fill:url(#radialGradient4604);opacity:0.5"/>
    </g>
    <g transform="matrix(0.62999046,0,0,0.62999046,3.0161178,102.76452)">
      <path
        d="m10.6 293.8c0 0.1-0.3 0.1-0.3 0.2-0.1 0.1 0 0.3-0.1 0.4-0.1 0.1-0.3 0-0.4 0-0.1 0.1-0.1 0.3-0.2 0.3-0.1 0-0.2-0.2-0.3-0.2-0.1 0-0.2 0.2-0.4 0.1-0.1 0-0.1-0.3-0.2-0.3-0.1-0.1-0.3 0-0.4-0.1-0.1-0.1 0-0.3 0-0.4-0.1-0.1-0.3-0.1-0.3-0.2 0-0.1 0.2-0.2 0.2-0.3 0-0.1-0.2-0.2-0.1-0.4 0-0.1 0.3-0.1 0.3-0.2 0.1-0.1 0-0.3 0.1-0.4 0.1-0.1 0.3 0 0.4 0 0.1-0.1 0.1-0.3 0.2-0.3 0.1 0 0.2 0.2 0.3 0.2 0.1 0 0.2-0.2 0.4-0.1 0.1 0 0.1 0.3 0.2 0.3 0.1 0.1 0.3 0 0.4 0.1 0.1 0.1 0 0.3 0 0.4 0.1 0.1 0.3 0.1 0.3 0.2 0 0.1-0.2 0.2-0.2 0.3 0 0.1 0.2 0.2 0.1 0.4z"
        fill="#ff5747"/>
      <path
        d="m10.6 293.8c0 0.1-0.3 0.1-0.3 0.2-0.1 0.1 0 0.3-0.1 0.4-0.1 0.1-0.3 0-0.4 0-0.1 0.1-0.1 0.3-0.2 0.3-0.1 0-0.2-0.2-0.3-0.2-0.1 0-0.2 0.2-0.4 0.1-0.1 0-0.1-0.3-0.2-0.3-0.1-0.1-0.3 0-0.4-0.1-0.1-0.1 0-0.3 0-0.4-0.1-0.1-0.3-0.1-0.3-0.2 0-0.1 0.2-0.2 0.2-0.3 0-0.1-0.2-0.2-0.1-0.4 0-0.1 0.3-0.1 0.3-0.2 0.1-0.1 0-0.3 0.1-0.4 0.1-0.1 0.3 0 0.4 0 0.1-0.1 0.1-0.3 0.2-0.3 0.1 0 0.2 0.2 0.3 0.2 0.1 0 0.2-0.2 0.4-0.1 0.1 0 0.1 0.3 0.2 0.3 0.1 0.1 0.3 0 0.4 0.1 0.1 0.1 0 0.3 0 0.4 0.1 0.1 0.3 0.1 0.3 0.2 0 0.1-0.2 0.2-0.2 0.3 0 0.1 0.2 0.2 0.1 0.4z"
        style="fill:url(#radialGradient4612);opacity:0.5"/>
    </g>
    <circle cx="6.4" cy="290.6" r="5.8" style="fill:#98dddf;opacity:0.5"/>
    <circle r="5.8" cy="290.6" cx="6.4"
      style="fill:none;stroke-linecap:round;stroke-width:0.26458333;stroke:#0f9499"/>
  </g>
</svg>